# xmcd
#
# Track frame offsets: 
#        150
#        17487
#        35975
#        42692
#        45025
#        47457
#        52056
#        54961
#        58254
#        76958
#        95607
#        96150
#        107240
#        114279
#        127722
#        132711
#        160695
#        198364
#        224865
#        251336
#        276327
#
# Disc length: 3992 seconds
#
# Revision: 0
# Processed by: cddbd v1.5.2PL0 Copyright (c) Steve Scherf et al.
# Submitted via: ExactAudioCopy v0.95b3
#
DISCID=2d0f9615
DTITLE=Led Zeppelin  - Studio Sessions Ultimate [Disc 4] 
DYEAR=1900
DGENRE=
TTITLE0=Stairway To Heaven
TTITLE1=Untitled Instrumental
TTITLE2=Black Dog
TTITLE3=Black Dog
TTITLE4=Black Dog
TTITLE5=Black Dog
TTITLE6=Black Dog
TTITLE7=Black Dog
TTITLE8=Black Dog
TTITLE9=No Quarter
TTITLE10=Untitled
TTITLE11=Stairway To Heaven
TTITLE12=Stairway To Heaven
TTITLE13=Stairway To Heaven
TTITLE14=Untitled Instrumental
TTITLE15=Stairway To Heaven
TTITLE16=Stairway To Heaven
TTITLE17=The Battle Of Evermore (alternate mix)
TTITLE18=When The Levee Breaks (alternate mix)
TTITLE19=Four Sticks (alternate mix)
TTITLE20=Black Dog (alternate mix)
EXTD=
EXTT0=
EXTT1=
EXTT2=
EXTT3=
EXTT4=
EXTT5=
EXTT6=
EXTT7=
EXTT8=
EXTT9=
EXTT10=
EXTT11=
EXTT12=
EXTT13=
EXTT14=
EXTT15=
EXTT16=
EXTT17=
EXTT18=
EXTT19=
EXTT20=
PLAYORDER=
